<?xml version="1.0" standalone="no"?>
<!DOCTYPE svg PUBLIC "-//W3C//DTD SVG 20010904//EN"
 "http://www.w3.org/TR/2001/REC-SVG-20010904/DTD/svg10.dtd">
<svg version="1.0" xmlns="http://www.w3.org/2000/svg"
 width="100.000000pt" height="100.000000pt" viewBox="0 0 100.000000 100.000000"
 preserveAspectRatio="xMidYMid meet">
<metadata>
Created by potrace 1.11, written by Peter Selinger 2001-2013
</metadata>
<g transform="translate(0.000000,100.000000) scale(0.100000,-0.100000)"
fill="#000000" stroke="none">
<path d="M470 955 c0 -22 -32 -55 -52 -55 -10 0 -18 -4 -18 -9 0 -5 -13 -12
-30 -16 -16 -4 -30 -11 -30 -16 0 -5 -16 -9 -35 -9 -19 0 -35 -4 -35 -10 0 -5
-11 -10 -25 -10 -14 0 -25 5 -25 10 0 19 -39 10 -45 -10 -6 -20 14 -50 34 -50
6 0 11 -7 11 -15 0 -9 9 -15 25 -15 24 0 25 -2 25 -70 0 -40 -4 -70 -10 -70
-5 0 -10 -7 -10 -15 0 -8 -6 -15 -14 -15 -8 0 -16 -4 -18 -8 -1 -5 -18 -12
-35 -15 -25 -5 -33 -3 -33 8 0 9 -10 15 -25 15 -19 0 -25 -5 -25 -21 0 -27 52
-79 79 -79 19 0 21 -6 21 -68 0 -71 -2 -74 -60 -115 -30 -21 -70 -22 -70 -2 0
8 -9 15 -20 15 -15 0 -20 -7 -20 -25 0 -31 41 -75 70 -75 19 0 20 -6 20 -85
l0 -85 375 0 375 0 0 85 c0 79 1 85 20 85 29 0 70 44 70 75 0 18 -5 25 -20 25
-11 0 -20 -7 -20 -15 0 -27 -52 -17 -92 18 -37 32 -38 35 -38 100 0 61 2 67
21 67 27 0 79 52 79 79 0 16 -6 21 -25 21 -15 0 -25 -6 -25 -15 0 -11 -8 -13
-32 -8 -18 3 -34 10 -36 15 -2 4 -10 8 -18 8 -8 0 -14 7 -14 15 0 8 -4 15 -10
15 -6 0 -10 30 -10 70 0 68 1 70 25 70 16 0 25 6 25 15 0 8 6 15 13 15 17 0
38 36 31 55 -7 16 -44 21 -44 5 0 -5 -11 -10 -25 -10 -14 0 -25 5 -25 10 0 6
-13 10 -29 10 -29 0 -93 27 -99 43 -2 4 -11 7 -21 7 -20 0 -51 34 -51 55 0 9
-10 15 -25 15 -15 0 -25 -6 -25 -15z m50 -70 c0 -8 9 -15 20 -15 11 0 20 -4
20 -10 0 -5 14 -10 30 -10 20 0 30 -5 30 -15 0 -10 11 -15 35 -15 19 0 35 -4
35 -10 0 -5 11 -10 25 -10 14 0 25 -4 25 -10 0 -6 -88 -10 -245 -10 -157 0
-245 4 -245 10 0 6 11 10 25 10 14 0 25 5 25 10 0 6 16 10 35 10 24 0 35 5 35
15 0 10 10 15 30 15 17 0 30 5 30 10 0 6 9 10 20 10 11 0 20 7 20 15 0 9 9 15
25 15 16 0 25 -6 25 -15z m170 -195 l0 -60 -195 0 -195 0 0 60 0 60 195 0 195
0 0 -60z m26 -125 c23 -25 41 -35 63 -35 17 0 31 -4 31 -10 0 -6 -112 -10
-315 -10 -203 0 -315 4 -315 10 0 6 15 10 33 10 24 1 40 10 62 35 l30 35 189
0 189 0 33 -35z m54 -145 l0 -60 -275 0 -275 0 0 60 0 60 275 0 275 0 0 -60z
m6 -104 c8 -8 14 -19 14 -25 0 -6 6 -11 14 -11 8 0 16 -5 18 -11 2 -6 19 -14
38 -19 20 -4 -136 -8 -365 -8 -229 0 -385 4 -365 8 19 5 36 13 38 19 2 6 10
11 18 11 8 0 14 5 14 10 0 37 19 39 293 40 220 0 271 -3 283 -14z m64 -181 l0
-75 -110 0 -110 0 0 50 0 50 -125 0 -125 0 0 -50 0 -50 -110 0 -110 0 0 75 0
75 345 0 345 0 0 -75z m-250 -40 l0 -35 -95 0 -95 0 0 35 0 35 95 0 95 0 0
-35z"/>
</g>
</svg>
